<svg width="117" height="29" viewBox="0 0 117 29" fill="none" xmlns="http://www.w3.org/2000/svg">
<path d="M11.3218 1.28174C6.34404 2.53464 2.49404 6.17588 0.938485 11.1483C-0.344848 15.416 0.277374 19.6837 2.84404 23.4816C4.32182 25.7133 5.72182 26.927 8.32737 28.2582C10.4663 29.3545 11.1274 29.1196 11.1274 27.3186C11.1274 26.0657 11.0496 25.9482 9.96071 25.9482C8.63849 25.9482 6.46071 24.9694 6.46071 24.3821C6.46071 24.1863 5.95515 23.4033 5.29404 22.6985C3.97182 21.1715 3.89404 20.8583 4.71071 20.8583C5.02182 20.8583 5.29404 21.0541 5.29404 21.289C5.29404 21.4848 5.4496 21.6022 5.64404 21.4848C6.11071 21.1715 6.96626 22.307 6.65515 22.816C6.4996 23.0509 6.61626 23.1683 6.92737 23.1292C7.1996 23.0509 7.39404 23.2075 7.35515 23.4816C7.27737 23.7948 7.51071 23.8731 7.8996 23.7165C8.2496 23.5599 8.44404 23.6382 8.32737 23.8339C8.17182 24.0297 8.67737 24.1863 9.37737 24.1863C10.4663 24.1863 10.7774 23.9906 11.2829 22.9334L11.8663 21.7197L10.6218 21.4848C8.75515 21.1324 6.96626 19.8795 6.22737 18.4308C5.37182 16.7472 5.29404 13.106 6.11071 11.8139C6.46071 11.3049 6.73293 10.0912 6.73293 9.19067C6.73293 6.91979 7.16071 6.56742 9.02737 7.35048C11.2052 8.29015 18.2052 8.32931 20.0329 7.38963C21.8607 6.4108 22.4052 6.76318 22.4052 8.99491C22.444 10.0129 22.6774 11.3049 22.9885 11.8531C23.7663 13.1843 23.7274 16.7081 22.9107 18.3917C22.2107 19.9186 20.5385 21.1324 18.6329 21.4848C17.544 21.6805 17.4274 21.8371 17.7385 22.4244C17.9718 22.816 18.1274 24.4212 18.1274 25.9482C18.1274 29.2762 18.4385 29.5111 21.0829 28.1799C23.6885 26.8487 26.4107 23.8731 27.7329 21.0541C28.6274 19.0573 28.8218 18.1959 28.7829 15.3769C28.7829 11.8139 28.1218 9.73882 26.0218 6.64572C23.144 2.45634 16.4163 -0.0103092 11.3218 1.28174Z" fill="#27296D"/>
<path d="M40.0995 6.01928C38.2329 6.72404 36.094 9.07322 35.3551 11.2266C34.344 14.2806 34.4217 20.1144 35.5495 22.6202C36.6384 25.0085 37.3384 25.7916 39.3217 26.8487C41.4606 27.9842 46.7884 28.0625 49.1606 26.9662L50.794 26.2223V20.5842V14.9462L47.0217 15.0636L43.2106 15.1811L43.094 17.0213L42.9773 18.9007H44.5717H46.1662L46.0495 21.1324L45.9329 23.4033H43.8329C42.044 23.3641 41.6162 23.2075 40.8384 22.307C38.194 19.2139 38.8162 12.0097 41.8884 10.3653C42.5106 10.0129 43.8329 9.89544 45.9717 10.0129L49.1217 10.2087L49.5106 8.48593C49.8217 7.11557 49.7829 6.68488 49.3162 6.29335C48.5773 5.6669 41.6551 5.47114 40.0995 6.01928Z" fill="#27296D"/>
<path d="M71.0163 16.943V27.5143H73.1552H75.2941V23.0117V18.5091H78.4052H81.5163V23.0117V27.5535L83.7719 27.436L85.9885 27.3185L86.1052 16.8255L86.183 6.37163H83.8496H81.5163V10.2869V14.2414L78.5219 14.1239L75.4885 14.0065L75.3719 10.1695L75.2552 6.37163H73.1552H71.0163V16.943Z" fill="#27296D"/>
<path d="M103.294 16.9429V27.5143H104.772C105.589 27.5143 106.405 27.3577 106.639 27.1227C106.872 26.8878 107.611 26.9661 108.739 27.3577C114.105 29.237 117.294 25.8698 116.827 18.9397C116.594 15.8858 115.777 14.0456 114.183 13.2234C112.9 12.5578 110.45 12.4403 108.972 13.0276L108 13.38L107.883 9.97368L107.766 6.56736L105.55 6.4499L103.294 6.33244V16.9429ZM111.461 16.9429C112.083 17.5694 112.239 18.235 112.239 20.3884C112.239 23.4032 111.889 23.9905 110.061 23.9905C107.689 23.9905 107.572 23.8339 107.572 20.2318C107.572 17.1779 107.65 16.9038 108.466 16.5514C109.827 16.0033 110.644 16.1207 111.461 16.9429Z" fill="#27296D"/>
<path d="M53.5162 7.54631C53.0884 7.97699 52.7384 8.76005 52.7384 9.3082C52.7384 9.85634 53.0884 10.6394 53.5162 11.0701C53.944 11.5008 54.7217 11.8531 55.2662 11.8531C55.8106 11.8531 56.5884 11.5008 57.0162 11.0701C57.444 10.6394 57.794 9.85634 57.794 9.3082C57.794 8.76005 57.444 7.97699 57.0162 7.54631C56.5884 7.11562 55.8106 6.76324 55.2662 6.76324C54.7217 6.76324 53.944 7.11562 53.5162 7.54631Z" fill="#27296D"/>
<path d="M61.2161 10.9526C61.0995 12.9885 61.0217 13.2235 60.1273 13.4192C59.3106 13.615 59.155 13.8499 59.155 15.1811C59.155 16.5906 59.2717 16.7472 60.2439 16.8647L61.2939 16.9822V20.5059C61.2939 24.8911 61.9161 26.5355 63.7828 27.3186C65.2217 27.945 66.7384 28.0625 68.2161 27.671C68.9161 27.4752 69.0717 27.162 69.0717 25.7133C69.0717 24.0689 69.0717 24.0297 67.6328 23.9123L66.155 23.7948L66.0384 20.3885L65.9217 16.9822L67.3995 16.8647C68.8772 16.7472 68.8772 16.7472 68.9939 14.8679L69.1106 13.0277H67.555H65.9995L65.8828 10.9526L65.7661 8.91662L63.5495 8.79916L61.3328 8.68171L61.2161 10.9526Z" fill="#27296D"/>
<path d="M53.1273 20.271V27.5143H55.2662H57.4051V20.271V13.0276H55.2662H53.1273V20.271Z" fill="#27296D"/>
<path d="M88.1274 19.0182C88.1274 25.6742 88.3218 26.379 90.694 27.3578C92.3274 28.0625 94.1163 28.0234 96.0996 27.3186C97.1496 26.9271 97.7718 26.888 98.0829 27.162C98.3552 27.3969 99.1718 27.5144 99.8718 27.4361L101.155 27.3186L101.272 20.1536L101.35 13.0277H99.0163H96.6829V18.2743C96.6829 23.9906 96.6829 23.9906 94.3496 23.9906C92.6774 23.9906 92.4052 23.0509 92.4052 17.7653V13.0277H90.2663H88.1274V19.0182Z" fill="#27296D"/>
</svg>
