<svg width="22" height="22" viewBox="0 0 22 22" fill="none" xmlns="http://www.w3.org/2000/svg">
<path d="M9.76521 0.0785368C4.69494 0.645874 0.616679 4.84417 0.0655627 9.9502C-0.485554 15.2832 2.49048 20.0488 7.00963 21.8643C7.3403 21.9777 7.67097 21.7508 7.67097 21.2969V19.4815C7.67097 19.4815 7.23008 19.5949 6.67896 19.5949C5.13584 19.5949 4.47449 18.2333 4.36427 17.439C4.25405 16.9852 4.0336 16.6448 3.70293 16.3044C3.37226 16.1909 3.26204 16.1909 3.26204 16.0774C3.26204 15.8505 3.59271 15.8505 3.70293 15.8505C4.36427 15.8505 4.91539 16.6448 5.13583 16.9852C5.68695 17.8929 6.34829 18.1199 6.67896 18.1199C7.11985 18.1199 7.45052 18.0064 7.67097 17.8929C7.78119 17.0986 8.11186 16.3044 8.7732 15.8505C6.23807 15.2832 4.36427 13.8081 4.36427 11.3118C4.36427 10.0637 4.91539 8.81553 5.68695 7.90779C5.57673 7.68085 5.4665 7.11352 5.4665 6.31924C5.4665 5.86537 5.4665 5.29804 5.68695 4.84417C5.68695 4.61723 5.9074 4.50377 6.01762 4.50377H6.12784C6.67896 4.61723 7.78119 4.95764 8.7732 5.97884C9.43454 5.75191 10.2061 5.63844 10.9777 5.63844C11.7492 5.63844 12.5208 5.75191 13.1821 5.97884C14.1741 4.95764 15.3866 4.61723 15.9377 4.50377H16.0479C16.2684 4.50377 16.3786 4.61723 16.4888 4.84417C16.4888 5.29804 16.4888 5.86537 16.4888 6.31924C16.4888 7.22698 16.3786 7.68085 16.2684 7.90779C17.04 8.81553 17.5911 9.9502 17.5911 11.3118C17.5911 13.8081 15.7173 15.2832 13.1821 15.8505C13.8435 16.4178 14.2844 17.439 14.2844 18.4603V21.4104C14.2844 21.7508 14.615 22.0912 15.0559 21.9777C19.1342 20.2757 22 16.1909 22 11.4253C22 4.61723 16.3786 -0.715735 9.76521 0.0785368Z" fill="#5E63B6"/>
</svg>
