<svg width="261" height="77" viewBox="0 0 261 77" fill="none" xmlns="http://www.w3.org/2000/svg">
<path d="M8.25 38.875L27.8125 46.7812V52.9062L2.25 41.0625V36.5L27.8125 24.6875V30.8125L8.25 38.875ZM72.8125 59H66.7812V37.9688H43.8438V59H37.8438V13.5H43.8438V33.0625H66.7812V13.5H72.8125V59ZM113.969 18.4375H99.3438V59H93.375V18.4375H78.7812V13.5H113.969V18.4375ZM128.469 13.5L143.344 50.625L158.219 13.5H166V59H160V41.2812L160.562 22.1562L145.625 59H141.031L126.125 22.25L126.719 41.2812V59H120.719V13.5H128.469ZM182.625 54.0938H204.188V59H176.594V13.5H182.625V54.0938Z" fill="black"/>
<path d="M212.432 16.7523L260.532 52.7552C236.565 46.9161 227.14 52.9515 215.063 74.715L212.432 16.7523Z" stroke="black"/>
<path d="M215.98 22.5066L251.885 49.4572C234.006 45.0706 226.983 49.5717 217.998 65.8234L215.98 22.5066Z" fill="black" stroke="black"/>
</svg>
