<svg width="22" height="22" viewBox="0 0 22 22" fill="none" xmlns="http://www.w3.org/2000/svg">
<path d="M16.28 22H5.72C2.56608 22 0 19.4339 0 16.28V5.72C0 2.56608 2.56608 0 5.72 0H16.28C19.4339 0 22 2.56608 22 5.72V16.28C22 19.4339 19.4339 22 16.28 22ZM5.72 0.88C3.0514 0.88 0.88 3.0514 0.88 5.72V16.28C0.88 18.9486 3.0514 21.12 5.72 21.12H16.28C18.9486 21.12 21.12 18.9486 21.12 16.28V5.72C21.12 3.0514 18.9486 0.88 16.28 0.88H5.72Z" fill="#5E63B6"/>
<path d="M11.3143 16.3428C8.19505 16.3428 5.65717 13.805 5.65717 10.6857C5.65717 7.56645 8.19505 5.02856 11.3143 5.02856C14.4336 5.02856 16.9715 7.56645 16.9715 10.6857C16.9715 13.805 14.4336 16.3428 11.3143 16.3428ZM11.3143 6.76922C9.15502 6.76922 7.39783 8.52642 7.39783 10.6857C7.39783 12.8454 9.15502 14.6022 11.3143 14.6022C13.474 14.6022 15.2308 12.8454 15.2308 10.6857C15.2308 8.52642 13.474 6.76922 11.3143 6.76922Z" fill="#5E63B6"/>
<path d="M17.9143 3.14288C17.4975 3.14288 17.0978 3.30844 16.8031 3.60314C16.5084 3.89784 16.3428 4.29754 16.3428 4.71431C16.3428 5.13108 16.5084 5.53078 16.8031 5.82548C17.0978 6.12018 17.4975 6.28574 17.9143 6.28574C18.331 6.28574 18.7307 6.12018 19.0254 5.82548C19.3201 5.53078 19.4857 5.13108 19.4857 4.71431C19.4857 4.29754 19.3201 3.89784 19.0254 3.60314C18.7307 3.30844 18.331 3.14288 17.9143 3.14288Z" fill="#5E63B6"/>
</svg>
