<svg width="22" height="22" viewBox="0 0 22 22" fill="none" xmlns="http://www.w3.org/2000/svg">
<path d="M11 0C4.9247 0 0 4.9247 0 11C0 17.0753 4.9247 22 11 22C17.0753 22 22 17.0753 22 11C22 4.9247 17.0753 0 11 0Z" fill="#5E63B6"/>
<path opacity="0.05" d="M14.0199 16.9714V12.5441C14.0199 12.0015 13.5786 11.5602 13.036 11.5602C12.4935 11.5602 12.0522 12.0015 12.0522 12.5441V16.9714H9.10064V8.60869H12.0522V9.1139C12.5638 8.78529 13.16 8.60869 13.7739 8.60869C15.537 8.60869 16.9715 10.0431 16.9715 11.8062V16.9714H14.0199ZM5.65717 16.9714V8.60869H7.11622C6.2706 8.60869 5.65717 7.98788 5.65717 7.13242C5.65717 6.27745 6.28044 5.65714 7.13835 5.65714C7.97266 5.65714 8.59101 6.27303 8.60872 7.12258C8.60872 7.98542 7.98545 8.60869 7.12704 8.60869H8.60872V16.9714H5.65717Z" fill="black"/>
<path opacity="0.07" d="M14.4 16.9714V12.6C14.4 11.8913 13.8235 11.3143 13.1143 11.3143C12.4051 11.3143 11.8286 11.8913 11.8286 12.6V16.9714H9.25717V8.74285H11.8286V9.53176C12.3892 9.02931 13.1205 8.74285 13.8857 8.74285C15.5875 8.74285 16.9715 10.1268 16.9715 11.8286V16.9714H14.4ZM5.65717 16.9714V8.74285H8.22859V16.9714H5.65717ZM6.92539 8.22856C6.19048 8.22856 5.65717 7.68753 5.65717 6.94233C5.65717 6.19765 6.20025 5.65714 6.94854 5.65714C7.68705 5.65714 8.21317 6.18325 8.22859 6.93719C8.22859 7.68754 7.68499 8.22856 6.93671 8.22856H6.92539Z" fill="black"/>
<path d="M5.65717 8.88979H7.81227V16.9714H5.65717V8.88979ZM6.72825 7.81224H6.7164C6.0731 7.81224 5.65717 7.33273 5.65717 6.73415C5.65717 6.12264 6.08603 5.65714 6.74064 5.65714C7.39633 5.65714 7.79988 6.12264 7.81227 6.73415C7.81227 7.33273 7.39633 7.81224 6.72825 7.81224ZM16.9715 11.8531C16.9715 10.2163 15.645 8.88979 14.0082 8.88979C13.005 8.88979 12.1198 9.38977 11.5837 10.1527V8.88979H9.42859V16.9714H11.5837V12.6612C11.5837 11.7685 12.3073 11.0449 13.2 11.0449C14.0928 11.0449 14.8164 11.7685 14.8164 12.6612V16.9714H16.9715C16.9715 16.9714 16.9715 12.0799 16.9715 11.8531Z" fill="white"/>
</svg>
