<svg width="198" height="29" viewBox="0 0 198 29" fill="none" xmlns="http://www.w3.org/2000/svg">
<path d="M19.3691 20.4932C20.8443 20.4932 22.3196 19.9328 23.4428 18.8115C24.5322 17.7245 25.1318 16.2788 25.1318 14.7406C25.1318 13.2025 24.5322 11.7568 23.4428 10.6698C21.1963 8.42762 17.5413 8.42762 15.2948 10.6698C14.2054 11.7568 13.6058 13.2025 13.6058 14.7406C13.6058 16.2788 14.2054 17.7245 15.2948 18.8115C16.4181 19.9328 17.8933 20.4932 19.3691 20.4932V20.4932ZM17.918 13.2978C18.3184 12.8984 18.8435 12.6992 19.3691 12.6992C19.8942 12.6992 20.4193 12.8989 20.8192 13.2978C21.2055 13.6832 21.4183 14.1957 21.4183 14.7406C21.4183 15.2856 21.2055 15.7976 20.8197 16.1835C20.0194 16.9818 18.7182 16.9813 17.918 16.1835C17.5316 15.7976 17.3194 15.2856 17.3194 14.7406C17.3194 14.1957 17.5321 13.6836 17.918 13.2978V13.2978Z" fill="#27296D"/>
<path d="M26.1536 22.86C26.5162 23.2237 26.992 23.4055 27.4678 23.4055C27.9426 23.4055 28.417 23.2246 28.7796 22.8629C30.9531 20.6933 32.1503 17.8091 32.1503 14.7405C32.1503 11.672 30.9531 8.78728 28.7796 6.61815C28.0538 5.89381 26.8779 5.89478 26.1536 6.62057C25.4292 7.34635 25.4307 8.5223 26.1565 9.24664C27.6269 10.7142 28.4368 12.6652 28.4368 14.7405C28.4368 16.8154 27.6269 18.7669 26.1565 20.2345C25.4307 20.9588 25.4292 22.1343 26.1536 22.86V22.86Z" fill="#27296D"/>
<path d="M9.94835 22.863C10.311 23.2247 10.7853 23.4055 11.2602 23.4055C11.736 23.4055 12.2118 23.2237 12.5744 22.8601C13.2988 22.1343 13.2973 20.9588 12.5715 20.2345C11.1011 18.7665 10.2912 16.8154 10.2912 14.7401C10.2912 12.6653 11.1011 10.7142 12.5715 9.24621C13.2973 8.52188 13.2988 7.34641 12.5744 6.62062C11.8501 5.89435 10.6741 5.89339 9.94835 6.61772C7.77487 8.78734 6.57812 11.6716 6.57764 14.7401C6.57764 17.8086 7.77487 20.6934 9.94835 22.863Z" fill="#27296D"/>
<path d="M34.9055 14.7406C34.9055 18.8806 33.29 22.7735 30.3564 25.7013C29.6306 26.4257 29.6292 27.6016 30.3535 28.3274C30.7166 28.6905 31.1919 28.8723 31.6677 28.8723C32.1426 28.8723 32.6169 28.6915 32.9796 28.3298C36.6162 24.7004 38.619 19.8743 38.619 14.7406C38.619 9.60739 36.6162 4.78076 32.9796 1.15135C32.2538 0.427017 31.0783 0.427984 30.3535 1.15377C29.6292 1.87955 29.6306 3.05551 30.3564 3.77984C33.29 6.70764 34.9055 10.6001 34.9055 14.7406Z" fill="#27296D"/>
<path d="M7.06023 28.8724C7.53603 28.8724 8.01182 28.6906 8.37447 28.3275C9.09881 27.6017 9.09784 26.4257 8.37157 25.7014C5.43797 22.7736 3.82249 18.8807 3.82249 14.7402C3.82249 10.6001 5.43797 6.70721 8.37157 3.77941C9.09736 3.05508 9.09881 1.87913 8.37447 1.15383C7.64966 0.427558 6.47419 0.426591 5.7484 1.15092C2.11174 4.78081 0.108948 9.60696 0.108948 14.7402C0.108948 19.8738 2.11174 24.7 5.7484 28.3299C6.11105 28.6916 6.5854 28.8724 7.06023 28.8724Z" fill="#27296D"/>
<path d="M48.9256 6.76H52.684V19.9376H60.8272V23H48.9256V6.76ZM61.976 10.5184H65.5952V23H61.976V10.5184ZM63.7856 8.7784C63.1205 8.7784 62.5792 8.58507 62.1616 8.1984C61.744 7.81173 61.5352 7.33227 61.5352 6.76C61.5352 6.18773 61.744 5.70827 62.1616 5.3216C62.5792 4.93493 63.1205 4.7416 63.7856 4.7416C64.4506 4.7416 64.992 4.9272 65.4096 5.2984C65.8272 5.6696 66.036 6.1336 66.036 6.6904C66.036 7.2936 65.8272 7.79627 65.4096 8.1984C64.992 8.58507 64.4506 8.7784 63.7856 8.7784ZM80.6469 10.5184L75.3805 23H71.6453L66.4021 10.5184H70.1373L73.5941 19.0096L77.1669 10.5184H80.6469ZM93.3143 16.8056C93.3143 16.852 93.2911 17.1768 93.2447 17.78H83.8023C83.9724 18.5533 84.3745 19.1643 85.0087 19.6128C85.6428 20.0613 86.4316 20.2856 87.3751 20.2856C88.0247 20.2856 88.5969 20.1928 89.0919 20.0072C89.6023 19.8061 90.074 19.4968 90.5071 19.0792L92.4327 21.1672C91.2572 22.5128 89.5404 23.1856 87.2823 23.1856C85.8748 23.1856 84.6297 22.9149 83.5471 22.3736C82.4644 21.8168 81.6292 21.0512 81.0415 20.0768C80.4537 19.1024 80.1599 17.9965 80.1599 16.7592C80.1599 15.5373 80.446 14.4392 81.0183 13.4648C81.606 12.4749 82.4025 11.7093 83.4079 11.168C84.4287 10.6112 85.5655 10.3328 86.8183 10.3328C88.0401 10.3328 89.146 10.5957 90.1359 11.1216C91.1257 11.6475 91.8991 12.4053 92.4559 13.3952C93.0281 14.3696 93.3143 15.5064 93.3143 16.8056ZM86.8415 13.0704C86.0217 13.0704 85.3335 13.3024 84.7767 13.7664C84.2199 14.2304 83.8796 14.8645 83.7559 15.6688H89.9039C89.7801 14.88 89.4399 14.2536 88.8831 13.7896C88.3263 13.3101 87.6457 13.0704 86.8415 13.0704ZM108.187 6.76C109.625 6.76 110.87 6.99973 111.922 7.4792C112.989 7.95867 113.809 8.6392 114.381 9.5208C114.954 10.4024 115.24 11.4464 115.24 12.6528C115.24 13.8437 114.954 14.8877 114.381 15.7848C113.809 16.6664 112.989 17.3469 111.922 17.8264C110.87 18.2904 109.625 18.5224 108.187 18.5224H104.916V23H101.157V6.76H108.187ZM107.978 15.46C109.107 15.46 109.966 15.2203 110.553 14.7408C111.141 14.2459 111.435 13.5499 111.435 12.6528C111.435 11.7403 111.141 11.0443 110.553 10.5648C109.966 10.0699 109.107 9.8224 107.978 9.8224H104.916V15.46H107.978ZM120.429 12.1656C120.862 11.5624 121.442 11.1061 122.169 10.7968C122.911 10.4875 123.762 10.3328 124.721 10.3328V13.6736C124.318 13.6427 124.048 13.6272 123.909 13.6272C122.872 13.6272 122.06 13.9211 121.473 14.5088C120.885 15.0811 120.591 15.9472 120.591 17.1072V23H116.972V10.5184H120.429V12.1656ZM138.29 16.8056C138.29 16.852 138.266 17.1768 138.22 17.78H128.778C128.948 18.5533 129.35 19.1643 129.984 19.6128C130.618 20.0613 131.407 20.2856 132.35 20.2856C133 20.2856 133.572 20.1928 134.067 20.0072C134.578 19.8061 135.049 19.4968 135.482 19.0792L137.408 21.1672C136.233 22.5128 134.516 23.1856 132.258 23.1856C130.85 23.1856 129.605 22.9149 128.522 22.3736C127.44 21.8168 126.605 21.0512 126.017 20.0768C125.429 19.1024 125.135 17.9965 125.135 16.7592C125.135 15.5373 125.421 14.4392 125.994 13.4648C126.581 12.4749 127.378 11.7093 128.383 11.168C129.404 10.6112 130.541 10.3328 131.794 10.3328C133.016 10.3328 134.121 10.5957 135.111 11.1216C136.101 11.6475 136.874 12.4053 137.431 13.3952C138.004 14.3696 138.29 15.5064 138.29 16.8056ZM131.817 13.0704C130.997 13.0704 130.309 13.3024 129.752 13.7664C129.195 14.2304 128.855 14.8645 128.731 15.6688H134.879C134.756 14.88 134.415 14.2536 133.858 13.7896C133.302 13.3101 132.621 13.0704 131.817 13.0704ZM152.165 10.5184L146.899 23H143.164L137.921 10.5184H141.656L145.113 19.0096L148.685 10.5184H152.165ZM152.946 10.5184H156.565V23H152.946V10.5184ZM154.756 8.7784C154.091 8.7784 153.549 8.58507 153.132 8.1984C152.714 7.81173 152.505 7.33227 152.505 6.76C152.505 6.18773 152.714 5.70827 153.132 5.3216C153.549 4.93493 154.091 4.7416 154.756 4.7416C155.421 4.7416 155.962 4.9272 156.38 5.2984C156.797 5.6696 157.006 6.1336 157.006 6.6904C157.006 7.2936 156.797 7.79627 156.38 8.1984C155.962 8.58507 155.421 8.7784 154.756 8.7784ZM171.455 16.8056C171.455 16.852 171.432 17.1768 171.385 17.78H161.943C162.113 18.5533 162.515 19.1643 163.149 19.6128C163.783 20.0613 164.572 20.2856 165.516 20.2856C166.165 20.2856 166.737 20.1928 167.232 20.0072C167.743 19.8061 168.215 19.4968 168.648 19.0792L170.573 21.1672C169.398 22.5128 167.681 23.1856 165.423 23.1856C164.015 23.1856 162.77 22.9149 161.688 22.3736C160.605 21.8168 159.77 21.0512 159.182 20.0768C158.594 19.1024 158.3 17.9965 158.3 16.7592C158.3 15.5373 158.587 14.4392 159.159 13.4648C159.747 12.4749 160.543 11.7093 161.548 11.168C162.569 10.6112 163.706 10.3328 164.959 10.3328C166.181 10.3328 167.287 10.5957 168.276 11.1216C169.266 11.6475 170.04 12.4053 170.596 13.3952C171.169 14.3696 171.455 15.5064 171.455 16.8056ZM164.982 13.0704C164.162 13.0704 163.474 13.3024 162.917 13.7664C162.36 14.2304 162.02 14.8645 161.896 15.6688H168.044C167.921 14.88 167.58 14.2536 167.024 13.7896C166.467 13.3101 165.786 13.0704 164.982 13.0704ZM192.987 10.5184L188.463 23H184.983L182.175 15.2512L179.275 23H175.795L171.295 10.5184H174.705L177.651 18.9632L180.714 10.5184H183.776L186.746 18.9632L189.785 10.5184H192.987Z" fill="#27296D"/>
</svg>
