<svg width="342" height="342" viewBox="0 0 342 342" fill="none" xmlns="http://www.w3.org/2000/svg">
<circle cx="171" cy="171" r="171" fill="url(#paint0_linear)"/>
<path d="M119.992 160.3C119.992 163.967 119.392 166.767 118.192 168.7C117.059 170.567 115.159 171.867 112.492 172.6C115.159 173.333 117.059 174.667 118.192 176.6C119.392 178.467 119.992 181.233 119.992 184.9V197.7C119.992 200.033 120.592 201.8 121.792 203C122.992 204.267 124.792 204.9 127.192 204.9H128.592V219.4H122.092C115.159 219.4 109.892 217.7 106.292 214.3C102.759 210.967 100.992 206.167 100.992 199.9V184.4C100.992 182.867 100.592 181.733 99.7922 181C99.0589 180.267 98.0255 179.9 96.6922 179.9H93.2922V165.3H96.6922C98.0255 165.3 99.0589 164.933 99.7922 164.2C100.592 163.467 100.992 162.333 100.992 160.8V145.3C100.992 139.033 102.759 134.233 106.292 130.9C109.892 127.5 115.159 125.8 122.092 125.8H128.592V140.3H127.192C124.792 140.3 122.992 140.933 121.792 142.2C120.592 143.4 119.992 145.167 119.992 147.5V160.3ZM248.602 165.3V179.9H245.302C243.968 179.9 242.902 180.267 242.102 181C241.368 181.733 241.002 182.867 241.002 184.4V199.9C241.002 206.167 239.202 210.967 235.602 214.3C232.068 217.7 226.835 219.4 219.902 219.4H213.302V204.9H214.802C217.202 204.9 219.002 204.267 220.202 203C221.402 201.8 222.002 200.033 222.002 197.7V184.9C222.002 181.233 222.568 178.467 223.702 176.6C224.902 174.667 226.835 173.333 229.502 172.6C226.835 171.867 224.902 170.567 223.702 168.7C222.568 166.767 222.002 163.967 222.002 160.3V147.5C222.002 145.167 221.402 143.4 220.202 142.2C219.002 140.933 217.202 140.3 214.802 140.3H213.302V125.8H219.902C226.835 125.8 232.068 127.5 235.602 130.9C239.202 134.233 241.002 139.033 241.002 145.3V160.8C241.002 162.333 241.368 163.467 242.102 164.2C242.902 164.933 243.968 165.3 245.302 165.3H248.602Z" fill="white"/>
<rect x="137" y="138" width="65" height="65" fill="white"/>
<defs>
<linearGradient id="paint0_linear" x1="357" y1="171" x2="-4.2479e-06" y2="86.5" gradientUnits="userSpaceOnUse">
<stop stop-color="#A393EB"/>
<stop offset="1" stop-color="#F5C7F7" stop-opacity="0.75"/>
</linearGradient>
</defs>
</svg>
