<svg width="342" height="342" viewBox="0 0 342 342" fill="none" xmlns="http://www.w3.org/2000/svg">
<circle cx="171" cy="171" r="171" fill="url(#paint0_linear)"/>
<path d="M95 171.5C95 164.83 141.552 128 141.552 128L149 134.96L109.897 171.5L149 208.04L141.552 215C141.552 215 95 178.17 95 171.5Z" fill="white"/>
<path d="M248 171.5C248 178.17 201.448 215 201.448 215L194 208.04L233.103 171.5L194 134.96L201.448 128C201.448 128 248 164.83 248 171.5Z" fill="white"/>
<rect width="11.8511" height="125.499" transform="matrix(0.972448 0.23312 -0.268735 0.963214 182.848 109)" fill="white"/>
<defs>
<linearGradient id="paint0_linear" x1="357" y1="171" x2="-4.2479e-06" y2="86.5" gradientUnits="userSpaceOnUse">
<stop stop-color="#A393EB"/>
<stop offset="1" stop-color="#F5C7F7" stop-opacity="0.75"/>
</linearGradient>
</defs>
</svg>
