<svg width="342" height="342" viewBox="0 0 342 342" fill="none" xmlns="http://www.w3.org/2000/svg">
<circle cx="171" cy="171" r="171" fill="url(#paint0_linear)"/>
<path fill-rule="evenodd" clip-rule="evenodd" d="M207.375 104H223.625V113.652C224.419 113.915 225.194 114.219 225.948 114.561L232.736 107.774L244.226 119.264L237.557 125.934C237.936 126.724 238.272 127.539 238.563 128.375H248V144.625H238.326C238.036 145.387 237.707 146.13 237.342 146.852L244.226 153.736L232.736 165.226L225.497 157.988C224.886 158.25 224.261 158.487 223.625 158.698V169H207.375V158.224C206.878 158.026 206.389 157.812 205.909 157.582L198.264 165.226L186.774 153.736L194.536 145.973C194.336 145.531 194.148 145.081 193.974 144.625H183V128.375H193.737C193.919 127.851 194.12 127.335 194.337 126.828L186.774 119.264L198.264 107.774L205.473 114.982C206.092 114.67 206.726 114.384 207.375 114.126V104ZM231.425 136.175C231.425 144.97 224.295 152.1 215.5 152.1C206.705 152.1 199.575 144.97 199.575 136.175C199.575 127.38 206.705 120.25 215.5 120.25C224.295 120.25 231.425 127.38 231.425 136.175ZM131.5 137H156.5V151.849C157.721 152.254 158.914 152.722 160.074 153.248L170.516 142.806L188.194 160.484L177.934 170.744C178.516 171.96 179.034 173.214 179.482 174.5H194V199.5H179.117C178.67 200.672 178.165 201.815 177.604 202.926L188.194 213.516L170.517 231.194L159.38 220.058C158.44 220.461 157.479 220.827 156.5 221.151V237H131.5V220.422C130.735 220.117 129.983 219.788 129.244 219.434L117.483 231.194L99.8058 213.517L111.748 201.574C111.439 200.894 111.151 200.202 110.883 199.5H94V174.5H110.518C110.799 173.693 111.107 172.899 111.442 172.12L99.8058 160.483L117.484 142.806L128.574 153.896C129.526 153.415 130.502 152.975 131.5 152.578V137ZM168.5 186.5C168.5 200.031 157.531 211 144 211C130.469 211 119.5 200.031 119.5 186.5C119.5 172.969 130.469 162 144 162C157.531 162 168.5 172.969 168.5 186.5Z" fill="white"/>
<defs>
<linearGradient id="paint0_linear" x1="357" y1="171" x2="-4.2479e-06" y2="86.5" gradientUnits="userSpaceOnUse">
<stop stop-color="#A393EB"/>
<stop offset="1" stop-color="#F5C7F7" stop-opacity="0.75"/>
</linearGradient>
</defs>
</svg>
